<?xml version="1.0" encoding="UTF-8"?>
<svg width="200" height="100" viewBox="0 0 200 100" fill="none" xmlns="http://www.w3.org/2000/svg">
<mask id="mask0_3_69" style="mask-type:alpha" maskUnits="userSpaceOnUse" x="0" y="0" width="200" height="100">
<rect width="200" height="100" fill="#D9D9D9"/>
</mask>
<g mask="url(#mask0_3_69)">
<rect x="70" y="-36.3525" width="1" height="200" transform="rotate(-30 70 -36.3525)" fill="#5C665E"/>
<rect x="60" y="-36.3525" width="1" height="200" transform="rotate(-30 60 -36.3525)" fill="#5C665E"/>
<rect x="50" y="-36.3525" width="1" height="200" transform="rotate(-30 50 -36.3525)" fill="#5C665E"/>
<rect x="40" y="-36.3525" width="1" height="200" transform="rotate(-30 40 -36.3525)" fill="#5C665E"/>
<rect x="30" y="-36.3525" width="1" height="200" transform="rotate(-30 30 -36.3525)" fill="#5C665E"/>
<rect x="20" y="-36.3525" width="1" height="200" transform="rotate(-30 20 -36.3525)" fill="#5C665E"/>
<rect y="-36.3525" width="1" height="200" transform="rotate(-30 0 -36.3525)" fill="#5C665E"/>
<rect x="10" y="-36.3525" width="1" height="200" transform="rotate(-30 10 -36.3525)" fill="#5C665E"/>
<rect x="-10" y="-36.3525" width="1" height="200" transform="rotate(-30 -10 -36.3525)" fill="#5C665E"/>
<rect x="-20" y="-36.3525" width="1" height="200" transform="rotate(-30 -20 -36.3525)" fill="#5C665E"/>
<rect x="-30" y="-36.3525" width="1" height="200" transform="rotate(-30 -30 -36.3525)" fill="#5C665E"/>
<rect x="-40" y="-36.3525" width="1" height="200" transform="rotate(-30 -40 -36.3525)" fill="#5C665E"/>
<rect x="-50" y="-36.3525" width="1" height="200" transform="rotate(-30 -50 -36.3525)" fill="#5C665E"/>
<rect x="-60" y="-36.3525" width="1" height="200" transform="rotate(-30 -60 -36.3525)" fill="#5C665E"/>
<rect x="-70" y="-36.3525" width="1" height="200" transform="rotate(-30 -70 -36.3525)" fill="#5C665E"/>
<rect x="-80" y="-36.3525" width="1" height="200" transform="rotate(-30 -80 -36.3525)" fill="#5C665E"/>
<rect x="180" y="-36.3525" width="1" height="200" transform="rotate(-30 180 -36.3525)" fill="#5C665E"/>
<rect x="170" y="-36.3525" width="1" height="200" transform="rotate(-30 170 -36.3525)" fill="#5C665E"/>
<rect x="160" y="-36.3525" width="1" height="200" transform="rotate(-30 160 -36.3525)" fill="#5C665E"/>
<rect x="150" y="-36.3525" width="1" height="200" transform="rotate(-30 150 -36.3525)" fill="#5C665E"/>
<rect x="140" y="-36.3525" width="1" height="200" transform="rotate(-30 140 -36.3525)" fill="#5C665E"/>
<rect x="130" y="-36.3525" width="1" height="200" transform="rotate(-30 130 -36.3525)" fill="#5C665E"/>
<rect x="110" y="-36.3525" width="1" height="200" transform="rotate(-30 110 -36.3525)" fill="#5C665E"/>
<rect x="120" y="-36.3525" width="1" height="200" transform="rotate(-30 120 -36.3525)" fill="#5C665E"/>
<rect x="100" y="-36.3525" width="1" height="200" transform="rotate(-30 100 -36.3525)" fill="#5C665E"/>
<rect x="90" y="-36.3525" width="1" height="200" transform="rotate(-30 90 -36.3525)" fill="#5C665E"/>
<rect x="80" y="-36.3525" width="1" height="200" transform="rotate(-30 80 -36.3525)" fill="#5C665E"/>
</g>
</svg>
